<svg width="288" height="320" viewBox="0 0 288 320" fill="none" xmlns="http://www.w3.org/2000/svg">
<g filter="url(#filter0_d_70_1544)">
<path d="M73.7309 258.544C75.4734 258.544 77.1498 258.411 78.6277 258.289C79.2894 258.233 79.896 258.189 80.4695 258.156C86.789 257.8 92.9651 256.623 98.9317 255.478C106.586 254.023 117.317 251.379 126.934 248.602C128.213 248.236 129.261 247.391 129.901 246.214C130.54 245.047 130.695 243.692 130.331 242.415C129.724 240.282 127.761 238.793 125.566 238.793C125.103 238.793 124.64 238.86 124.188 238.993C114.857 241.704 104.468 244.248 97.0899 245.658C91.4321 246.736 85.5758 247.847 79.907 248.169C79.2673 248.202 78.5615 248.258 77.8226 248.324C76.6094 248.424 75.0874 248.547 73.6647 248.547C72.8265 248.547 72.0986 248.502 71.5031 248.413C74.3595 243.003 77.5799 237.66 80.6901 232.484C85.7854 224.03 91.0461 215.287 95.0937 205.712C96.9355 201.346 98.6009 196.825 100.024 192.281L100.156 191.882C101.093 188.993 102.836 183.606 99.4501 180.318C98.634 179.518 97.2002 178.573 95.0496 178.573C94.0901 178.573 93.0865 178.762 92.0387 179.151C86.2596 181.273 80.2489 182.584 74.1279 183.05C74.4257 182.695 74.7455 182.317 75.0874 181.928C81.6716 174.485 87.5279 166.454 92.513 158.056L94.2445 155.145C98.1928 148.536 102.273 141.715 105.328 134.506C106.2 132.451 107.821 128.618 106.762 124.452C106.398 122.997 105.648 121.842 104.545 121.031C103.575 120.32 102.45 119.953 101.204 119.953C100.84 119.953 100.454 119.987 100.079 120.053L97.4428 120.498C92.9872 121.253 88.3992 122.031 83.9546 122.297C86.2596 115.876 92.8107 103.268 95.0717 98.8914C96.3951 96.3365 97.4429 94.3258 97.9722 93.1816C98.2038 92.6928 98.5347 91.9263 98.9428 90.9599C105.461 75.8522 108.858 72.2086 109.983 71.3532C110.534 71.742 111.185 72.3641 111.78 72.9306C113.038 74.1193 116.071 76.4854 121.761 80.9177C128.941 86.5053 147.304 100.802 153.712 107.523C149.554 109.067 145.065 110.211 140.72 111.322L138.15 111.977C136.474 112.411 135.228 113.322 134.445 114.677C133.761 115.876 133.54 117.232 133.783 118.72C134.478 122.964 137.5 125.808 139.121 127.341C144.79 132.695 151.252 137.283 157.495 141.715L160.274 143.692C168.204 149.358 176.762 154.323 185.729 158.456C186.203 158.678 186.655 158.889 187.085 159.111C181.295 161.166 175.273 162.41 169.141 162.81C164.983 163.077 163.406 165.476 162.833 166.887C161.057 171.264 164.807 175.496 166.825 177.763L167.101 178.074C170.233 181.651 173.553 185.116 176.983 188.36C184.515 195.481 192.831 201.346 200.882 207.011C205.801 210.477 210.896 214.065 215.661 217.865C214.084 218.864 211.602 219.731 209.849 220.342C209.143 220.586 208.47 220.819 207.874 221.053C202.559 223.063 196.757 224.419 191.144 225.729C180.236 228.273 160.947 231.439 148.804 232.095C146.069 232.239 143.973 234.605 144.117 237.36C144.26 240.015 146.433 242.092 149.058 242.092C149.146 242.092 149.245 242.092 149.333 242.092C162.006 241.404 182.067 238.127 193.383 235.483C199.316 234.094 205.437 232.672 211.36 230.428C211.867 230.24 212.418 230.04 213.003 229.84C217.183 228.384 222.785 226.429 225.476 221.853C227.638 218.176 226.26 213.577 221.947 210.144C216.907 206.134 211.646 202.424 206.573 198.847C198.809 193.381 190.791 187.716 183.777 181.095C180.821 178.296 177.942 175.33 175.229 172.264C182.321 171.286 189.236 169.32 195.82 166.41C196.327 166.187 197.375 165.721 198.312 164.743C199.923 163.066 200.573 160.933 200.165 158.733C199.515 155.257 196.349 152.379 189.897 149.413C181.471 145.536 173.442 140.882 166.031 135.583L163.23 133.595C157.34 129.407 151.264 125.086 146.135 120.298C150.911 119.054 155.554 117.721 160.009 115.821C161.013 115.399 163.671 114.255 164.972 111.333C166.935 106.912 164.057 102.779 151.605 92.1263C144.172 85.7611 134.753 78.4405 127.882 73.0862C123.57 69.7314 119.567 66.6098 118.618 65.7211C117.162 64.3437 115.354 62.633 112.872 61.7109C111.924 61.3555 110.953 61.1777 109.994 61.1777C101.711 61.1777 95.2592 74.5303 89.855 87.0386C89.48 87.9161 89.1933 88.5715 88.9948 89.0048C88.5536 89.949 87.5059 91.9708 86.2927 94.3147C72.9258 120.053 70.9626 126.452 75.2529 130.362C76.7748 131.751 78.7931 132.462 81.2305 132.462H81.6055C86.4361 132.395 91.2226 131.728 96.0863 130.929C93.307 137.416 89.469 143.837 85.7523 150.058L83.9987 152.99C79.3335 160.855 73.8522 168.365 67.7092 175.319C62.9778 180.673 61.2242 184.594 62.0183 188.038C62.5256 190.226 63.9814 191.915 66.121 192.792C67.3783 193.303 68.5143 193.303 69.0657 193.303C76.2565 193.303 83.3811 192.293 90.2521 190.304C88.9837 194.214 87.55 198.102 85.9619 201.857C82.19 210.777 77.1167 219.198 72.2089 227.351C68.9775 232.706 65.6578 238.227 62.6579 243.937C60.0882 248.824 60.6617 253.59 64.1137 256.078C66.4629 257.767 69.6061 258.589 73.7309 258.589V258.544Z" fill="#49CBF4"/>
<path d="M110.005 62.2439C102.439 62.2439 96.2076 75.0966 90.8807 87.4383C90.5057 88.3047 90.2189 88.9824 90.0094 89.4267C89.5572 90.3931 88.5095 92.426 87.2853 94.7811C74.3926 119.598 72.2861 126.085 76.0138 129.473C77.8446 131.14 80.0945 131.284 81.2525 131.284C81.3849 131.284 81.5062 131.284 81.6054 131.284C87.1198 131.206 92.5681 130.34 97.8619 129.44C97.6744 129.973 97.4539 130.506 97.2443 131.017C94.432 137.66 90.5167 144.214 86.7228 150.568L84.9692 153.501C80.271 161.422 74.7455 168.998 68.5583 175.996C64.0806 181.062 62.4153 184.672 63.1211 187.727C63.5402 189.549 64.7644 190.959 66.5621 191.704C67.6209 192.137 68.5694 192.137 69.0877 192.137C76.8851 192.137 84.5722 190.937 91.9725 188.571C91.9174 188.749 91.8622 188.938 91.7961 189.138L91.6527 189.604C90.3072 193.881 88.7411 198.124 87.0096 202.235C83.2157 211.221 78.1093 219.686 73.1794 227.873C69.97 233.205 66.6504 238.715 63.6615 244.403C61.3676 248.768 61.8087 252.979 64.7865 255.123C67.3562 256.978 70.6428 257.433 73.7639 257.433C75.4624 257.433 77.1167 257.3 78.5725 257.178C79.2342 257.122 79.8629 257.067 80.4364 257.044C86.6787 256.689 92.8218 255.523 98.7663 254.389C106.398 252.934 117.085 250.313 126.669 247.535C128.721 246.947 129.901 244.792 129.316 242.725C128.831 241.026 127.287 239.915 125.61 239.915C125.258 239.915 124.894 239.959 124.541 240.07C115.177 242.781 104.755 245.347 97.3436 246.758C91.6527 247.846 85.7633 248.968 80.0173 249.291C79.3887 249.324 78.6938 249.379 77.9659 249.446C76.7197 249.546 75.1867 249.679 73.7198 249.679C72.253 249.679 70.9957 249.568 70.0362 249.213C70.1244 248.902 70.2678 248.513 70.4994 248.08C73.389 242.592 76.6425 237.182 79.7967 231.939C84.87 223.519 90.1197 214.809 94.1342 205.312C95.965 200.968 97.6193 196.491 99.031 191.981L99.1633 191.581C100.09 188.727 101.634 183.961 98.7442 181.162C98.1046 180.539 96.9245 179.729 95.1047 179.729C94.3437 179.729 93.4724 179.873 92.4799 180.24C85.8405 182.683 78.9144 184.061 71.856 184.35C72.3964 183.561 73.1794 182.539 74.3264 181.239C80.8665 173.841 86.6787 165.876 91.6306 157.534L93.3622 154.623C97.2884 148.047 101.347 141.259 104.369 134.117C105.185 132.184 106.718 128.573 105.748 124.774C105.45 123.575 104.843 122.63 103.95 121.975C103.167 121.408 102.262 121.12 101.259 121.12C100.95 121.12 100.63 121.142 100.31 121.197L97.6855 121.642C92.6563 122.497 87.4728 123.375 82.4657 123.53C84.1421 117.709 91.5204 103.501 94.1562 98.4247C95.4797 95.8808 96.5164 93.8701 97.0348 92.7593C97.2664 92.2705 97.5862 91.5151 97.9943 90.5709C105.428 73.3303 108.957 70.5421 110.06 70.1199C110.832 70.4976 111.725 71.3419 112.596 72.175C113.821 73.3303 116.832 75.6854 122.489 80.0955C130.496 86.3274 150.469 101.879 155.664 108.034C151.032 109.9 145.959 111.2 141.04 112.455L138.47 113.11C137.091 113.466 136.077 114.199 135.448 115.299C134.897 116.265 134.72 117.376 134.919 118.598C135.558 122.475 138.393 125.152 139.926 126.585C145.54 131.884 151.969 136.449 158.179 140.871L160.958 142.848C168.821 148.48 177.336 153.412 186.236 157.5C187.824 158.233 188.96 158.855 189.776 159.355C183.203 161.955 176.321 163.51 169.263 163.965C165.7 164.199 164.377 166.187 163.903 167.354C162.381 171.097 165.711 174.83 167.685 177.062L167.961 177.385C171.071 180.939 174.369 184.372 177.777 187.593C185.243 194.658 193.537 200.502 201.544 206.145C206.529 209.655 211.679 213.288 216.51 217.142C216.896 217.453 217.183 217.753 217.392 217.998C215.892 219.464 212.551 220.63 210.246 221.43C209.551 221.675 208.889 221.897 208.305 222.13C202.923 224.163 197.077 225.529 191.43 226.84C180.479 229.395 161.101 232.572 148.903 233.239C146.775 233.35 145.143 235.183 145.253 237.327C145.363 239.393 147.05 241.004 149.102 241.004C149.179 241.004 149.245 241.004 149.322 241.004C161.939 240.315 181.913 237.049 193.184 234.416C199.073 233.039 205.161 231.617 211.018 229.406C211.558 229.206 212.154 228.995 212.782 228.773C216.709 227.407 222.091 225.529 224.572 221.297C226.436 218.12 225.157 214.099 221.308 211.033C216.3 207.045 211.051 203.345 205.978 199.768C198.191 194.281 190.129 188.593 183.06 181.917C179.828 178.862 176.696 175.607 173.751 172.241L173.431 171.875C173.299 171.719 173.167 171.575 173.045 171.43C180.766 170.586 188.276 168.564 195.412 165.41C195.886 165.198 196.768 164.81 197.551 163.988C198.897 162.577 199.459 160.788 199.107 158.955C198.522 155.867 195.555 153.235 189.467 150.435C180.964 146.525 172.891 141.837 165.413 136.494C164.487 135.827 163.561 135.172 162.623 134.505C156.624 130.24 150.414 125.83 145.198 120.897C144.79 120.52 144.382 120.12 143.996 119.709C149.19 118.376 154.528 116.965 159.601 114.799C160.495 114.421 162.866 113.399 163.991 110.877C165.491 107.512 163.958 104.123 150.911 92.9703C143.477 86.6162 134.07 79.2845 127.199 73.9413C122.732 70.4643 118.872 67.465 117.879 66.5208C116.49 65.2099 114.78 63.5881 112.508 62.7327C111.659 62.4217 110.832 62.2662 110.016 62.2662M110.016 60.0444C111.108 60.0444 112.199 60.2444 113.28 60.6443C115.971 61.6552 117.956 63.5214 119.39 64.8878C120.306 65.7543 124.287 68.8536 128.5 72.1306L127.232 73.9524L128.577 72.1973C135.459 77.5516 144.878 84.8833 152.333 91.2596C165.281 102.346 168.226 106.756 165.998 111.766C164.52 115.088 161.465 116.398 160.462 116.821C156.568 118.487 152.532 119.72 148.407 120.831C153.149 125.041 158.598 128.907 163.88 132.673C164.829 133.339 165.755 134.006 166.682 134.672C174.038 139.938 182.012 144.559 190.372 148.402C197.177 151.535 200.54 154.656 201.268 158.522C201.742 161.055 200.959 163.599 199.129 165.51C198.037 166.643 196.857 167.165 196.294 167.42C190.25 170.097 183.931 171.986 177.457 173.052C179.74 175.552 182.122 177.973 184.56 180.284C191.508 186.86 199.504 192.492 207.224 197.936C212.319 201.524 217.591 205.245 222.653 209.277C227.418 213.077 228.906 218.231 226.447 222.419C223.546 227.34 217.723 229.373 213.477 230.861L213.378 230.895C212.804 231.095 212.264 231.284 211.768 231.472C205.779 233.727 199.625 235.172 193.669 236.56C182.299 239.215 162.149 242.503 149.411 243.203C149.3 243.203 149.19 243.203 149.069 243.203C145.848 243.203 143.201 240.659 143.025 237.427C142.849 234.061 145.418 231.172 148.76 230.995C160.848 230.339 180.049 227.196 190.912 224.652C196.493 223.352 202.25 222.008 207.511 220.019C208.117 219.786 208.79 219.553 209.507 219.308C210.665 218.909 212.297 218.331 213.665 217.709C209.308 214.321 204.72 211.088 200.276 207.955C192.203 202.257 183.854 196.369 176.255 189.204C172.803 185.938 169.45 182.45 166.296 178.84L166.02 178.529C163.847 176.085 159.8 171.519 161.84 166.498C162.381 165.176 164.167 162.055 169.097 161.733C174.214 161.399 179.255 160.466 184.14 158.967C175.527 154.923 167.299 150.102 159.656 144.636L156.888 142.659C150.613 138.193 144.117 133.583 138.393 128.185C136.794 126.685 133.485 123.552 132.724 118.931C132.437 117.187 132.702 115.576 133.518 114.154C134.445 112.544 135.967 111.433 137.908 110.933L140.488 110.278C144.249 109.322 148.109 108.334 151.749 107.089C144.558 100.058 127.882 87.0828 121.133 81.8284C115.254 77.2517 112.376 74.9966 111.074 73.7747C110.766 73.4859 110.413 73.1415 110.071 72.8416C108.725 74.2746 105.527 78.618 100.002 91.4374C99.5824 92.4038 99.2516 93.1814 99.02 93.6813C98.4795 94.8477 97.4208 96.8806 96.0973 99.4355C94.0129 103.446 88.2999 114.443 85.653 121.086C89.5021 120.742 93.4614 120.075 97.3105 119.42L99.9464 118.976C100.399 118.898 100.84 118.864 101.259 118.864C102.737 118.864 104.082 119.298 105.251 120.153C106.553 121.108 107.457 122.508 107.887 124.208C109.034 128.74 107.247 132.95 106.398 134.972C103.31 142.248 99.2185 149.113 95.2481 155.745L93.5166 158.656C88.719 166.743 83.1164 174.485 76.841 181.695C81.9142 181.095 86.8993 179.895 91.7189 178.129C92.8769 177.707 94.0239 177.485 95.1047 177.485C97.0679 177.485 98.9097 178.218 100.266 179.54C104.148 183.317 102.262 189.126 101.248 192.248L101.115 192.648C99.6817 197.213 98.0053 201.757 96.1525 206.167C92.0828 215.809 86.789 224.585 81.6716 233.072C78.8593 237.749 75.9476 242.57 73.3228 247.435C73.4441 247.435 73.5765 247.435 73.7088 247.435C75.0874 247.435 76.5763 247.313 77.7784 247.213C78.5284 247.147 79.2342 247.091 79.8849 247.058C85.4876 246.736 91.2998 245.636 96.9245 244.558C104.27 243.159 114.615 240.615 123.923 237.915C124.474 237.76 125.037 237.671 125.61 237.671C128.301 237.671 130.695 239.493 131.434 242.092C131.886 243.659 131.698 245.314 130.915 246.736C130.132 248.169 128.842 249.202 127.287 249.646C117.648 252.445 106.883 255.089 99.1854 256.556C93.1747 257.7 86.9655 258.888 80.5798 259.244C80.0283 259.277 79.4217 259.322 78.771 259.377C77.2711 259.499 75.5727 259.644 73.775 259.644C69.4186 259.644 66.0658 258.755 63.5182 256.922C59.5919 254.09 58.8861 248.768 61.7315 243.359C64.7534 237.627 68.0841 232.083 71.3045 226.729C76.2013 218.598 81.2635 210.199 85.0023 201.357C86.3147 198.258 87.5169 195.07 88.6087 191.859C82.2561 193.514 75.716 194.347 69.1208 194.347C68.5032 194.347 67.2128 194.347 65.768 193.748C63.3196 192.748 61.5881 190.726 61.0036 188.216C60.1213 184.383 61.9521 180.151 66.9481 174.496C73.0471 167.598 78.4843 160.144 83.1164 152.346L84.87 149.413C88.2117 143.826 91.6527 138.06 94.3106 132.273C90.0866 132.928 85.9067 133.439 81.6826 133.495C81.5834 133.495 81.451 133.495 81.2966 133.495C78.5725 133.495 76.3226 132.695 74.5801 131.106C69.4627 126.441 72.275 118.942 85.3773 93.7368C86.5905 91.3929 87.6382 89.3823 88.0573 88.4714C88.2558 88.0381 88.5426 87.3827 88.8955 86.5607C94.6967 73.1082 101.104 60 110.06 60L110.016 60.0444Z" fill="#25C6F9"/>
</g>
<defs>
<filter id="filter0_d_70_1544" x="0.338463" y="0.338463" width="286.94" height="318.967" filterUnits="userSpaceOnUse" color-interpolation-filters="sRGB">
<feFlood flood-opacity="0" result="BackgroundImageFix"/>
<feColorMatrix in="SourceAlpha" type="matrix" values="0 0 0 0 0 0 0 0 0 0 0 0 0 0 0 0 0 0 127 0" result="hardAlpha"/>
<feOffset/>
<feGaussianBlur stdDeviation="29.8308"/>
<feColorMatrix type="matrix" values="0 0 0 0 0.14625 0 0 0 0 0.7761 0 0 0 0 0.975 0 0 0 1 0"/>
<feBlend mode="normal" in2="BackgroundImageFix" result="effect1_dropShadow_70_1544"/>
<feBlend mode="normal" in="SourceGraphic" in2="effect1_dropShadow_70_1544" result="shape"/>
</filter>
</defs>
</svg>
