<svg width="1440" height="599" viewBox="0 0 1440 599" fill="none" xmlns="http://www.w3.org/2000/svg">
<path style="mix-blend-mode:screen" d="M1604 386.667C1428.96 156.249 1089.52 0 699.444 0C279.817 0 -81.2059 180.82 -242 440.267V599H1604V386.667Z" fill="url(#paint0_radial_70_1402)"/>
<path style="mix-blend-mode:screen" d="M1484.74 375.414C1332.32 174.773 1036.73 38.7109 697.067 38.7109C331.667 38.7109 17.3055 196.166 -122.715 422.09V560.308H1484.74V375.414Z" fill="url(#paint1_radial_70_1402)"/>
<path style="mix-blend-mode:screen" d="M1395.6 379.141C1260.09 211.968 997.296 98.5947 695.274 98.5947C370.384 98.5947 90.8903 229.78 -33.6016 418.035V533.198H1395.6V379.141Z" fill="url(#paint2_radial_70_1402)"/>
<path opacity="0.5" d="M1017.75 202.34C1015.56 217.722 983.145 225.449 945.333 219.585C907.541 213.721 878.672 196.475 880.861 181.094C883.05 165.712 915.465 157.984 953.277 163.848C991.07 169.712 1019.94 186.958 1017.75 202.34ZM319.931 181.55C284.251 195.818 259.628 219.183 264.968 233.706C270.289 248.23 303.553 248.449 339.233 234.163C374.912 219.877 399.535 196.53 394.196 182.007C388.875 167.484 355.61 167.264 319.931 181.55ZM440.668 206.687C414.951 216.278 397.026 232.555 400.611 243.023C404.196 253.491 427.932 254.203 453.649 244.594C479.366 235.003 497.291 218.726 493.706 208.259C490.121 197.791 466.385 197.078 440.668 206.687ZM498.423 130.399C478.989 136.793 465.159 148.375 467.555 156.285C469.932 164.195 487.631 165.438 507.065 159.044C526.499 152.65 540.329 141.068 537.933 133.157C535.556 125.247 517.857 124.005 498.423 130.399ZM1122.24 220.918C1103.62 212.296 1085.9 211.455 1082.69 219.055C1079.49 226.636 1091.98 239.771 1110.6 248.394C1129.22 257.017 1146.94 257.857 1150.15 250.257C1153.35 242.658 1140.86 229.541 1122.24 220.918ZM1033.71 253.491C1010.71 250.714 991.239 256.048 990.202 265.42C989.164 274.792 1006.98 284.62 1029.96 287.397C1052.96 290.174 1072.43 284.839 1073.47 275.468C1074.5 266.114 1056.69 256.268 1033.71 253.491Z" fill="url(#paint3_radial_70_1402)"/>
<path style="mix-blend-mode:screen" d="M350.195 233.14C333.855 239.68 318.044 243.169 305.176 243.644C315.629 242.11 327.289 238.968 339.233 234.181C374.912 219.914 399.535 196.549 394.196 182.025C391.309 174.152 380.195 170.48 364.95 171.064C385.705 168.013 401.611 171.32 405.158 180.984C410.479 195.507 385.875 218.872 350.195 233.14ZM472.744 199.965C483.763 199.764 491.744 202.559 493.706 208.277C497.291 218.745 479.347 235.003 453.649 244.613C446.309 247.353 439.139 249.234 432.536 250.294C441.687 250.13 452.932 247.919 464.611 243.571C490.329 233.98 508.253 217.703 504.668 207.236C502.102 199.764 489.253 197.298 472.744 199.965ZM953.277 163.848C991.07 169.712 1019.94 186.958 1017.75 202.34C1016.47 211.401 1004.67 217.813 987.466 220.334C1010.48 219.22 1027.16 212.186 1028.71 201.298C1030.9 185.916 1002.03 168.671 964.239 162.807C948.711 160.396 934.107 160.286 922.107 162.04C931.616 161.583 942.22 162.131 953.277 163.848ZM1133.2 219.877C1119 213.301 1105.35 211.273 1098.24 214.031C1105.15 214.616 1113.58 216.918 1122.24 220.919C1140.86 229.541 1153.37 242.676 1150.15 250.257C1149.37 252.066 1147.77 253.381 1145.56 254.24C1153.51 254.898 1159.39 253.29 1161.11 249.216C1164.32 241.635 1151.83 228.5 1133.2 219.877ZM1044.67 252.45C1035.39 251.335 1026.71 251.554 1019.56 252.797C1024.03 252.687 1028.79 252.888 1033.71 253.473C1056.71 256.249 1074.5 266.078 1073.47 275.449C1072.84 281.04 1065.64 285.168 1055.07 287.013C1071.41 286.611 1083.62 281.752 1084.43 274.408C1085.47 265.055 1067.66 255.208 1044.67 252.431V252.45ZM521.442 126.325C530.235 126.325 536.574 128.663 537.933 133.157C540.31 141.068 526.499 152.668 507.065 159.044C502.914 160.414 498.857 161.4 495.008 162.076C501.649 162.076 509.668 160.743 518.027 158.002C537.461 151.608 551.292 140.026 548.895 132.116C547.027 125.887 535.669 123.822 521.442 126.325Z" fill="url(#paint4_radial_70_1402)"/>
<path opacity="0.5" d="M1065.26 284.109C1058.15 280.419 1048.45 277.514 1037.56 276.199C1023.22 274.463 1010.26 275.888 1002.28 279.487C1009.39 283.177 1019.09 286.082 1029.98 287.397C1044.32 289.133 1057.28 287.708 1065.26 284.109Z" fill="url(#paint5_radial_70_1402)"/>
<path opacity="0.5" d="M1014.15 209.465C1003.41 199.399 982.239 190.466 957.107 186.557C925.692 181.679 898.031 186.191 888.295 196.677C899.031 206.743 920.201 215.676 945.333 219.586C976.749 224.463 1004.41 219.951 1014.15 209.465Z" fill="url(#paint6_radial_70_1402)"/>
<path opacity="0.5" d="M1092.69 237.287C1097.45 241.27 1103.58 245.143 1110.6 248.395C1123.81 254.514 1136.54 256.688 1143.98 254.734C1139.22 250.751 1133.09 246.878 1126.07 243.626C1112.86 237.507 1100.13 235.333 1092.69 237.287Z" fill="url(#paint7_radial_70_1402)"/>
<path opacity="0.5" d="M271.855 240.996C284.478 247.664 311.082 245.435 339.233 234.164C363.932 224.28 383.309 210.068 391.14 197.426C378.517 190.758 351.913 192.987 323.762 204.258C299.063 214.142 279.686 228.354 271.855 240.996Z" fill="url(#paint8_radial_70_1402)"/>
<path opacity="0.5" d="M502.255 153.107C494.217 155.738 487.179 159.282 481.82 163.063C488.839 163.41 497.745 162.113 507.066 159.044C515.104 156.414 522.141 152.87 527.5 149.088C520.481 148.741 511.575 150.038 502.255 153.107Z" fill="url(#paint9_radial_70_1402)"/>
<path opacity="0.5" d="M410.48 250.24C420.499 252.761 436.613 250.952 453.651 244.595C468.462 239.06 480.651 231.332 487.689 223.751C477.67 221.23 461.556 223.038 444.519 229.396C429.707 234.931 417.518 242.659 410.48 250.24Z" fill="url(#paint10_radial_70_1402)"/>
<path opacity="0.25" d="M373.194 250.222C374.93 256.013 364.666 264.526 350.27 269.257C335.873 273.989 322.779 273.13 321.043 267.339C319.307 261.548 329.571 253.035 343.968 248.303C358.364 243.572 371.459 244.431 373.194 250.222Z" fill="url(#paint11_radial_70_1402)"/>
<path opacity="0.25" d="M911.823 143.023C911.031 149.033 898.257 152.157 883.313 150.001C868.351 147.845 856.879 141.232 857.672 135.222C858.464 129.212 871.238 126.088 886.181 128.244C901.144 130.399 912.615 137.012 911.823 143.023Z" fill="url(#paint12_radial_70_1402)"/>
<path opacity="0.25" d="M1225.07 264.944C1222.05 270.114 1209.15 267.666 1196.26 259.464C1183.37 251.262 1175.37 240.41 1178.39 235.222C1181.41 230.052 1194.32 232.5 1207.2 240.702C1220.09 248.905 1228.09 259.756 1225.07 264.944Z" fill="url(#paint13_radial_70_1402)"/>
<path opacity="0.25" d="M947.447 149.344C947.107 151.902 941.692 153.217 935.333 152.303C928.994 151.39 924.107 148.577 924.446 146.037C924.786 143.48 930.201 142.165 936.56 143.078C942.899 143.991 947.786 146.805 947.447 149.344Z" fill="url(#paint14_radial_70_1402)"/>
<path opacity="0.25" d="M1009.24 236.008C1008.9 238.566 1003.48 239.881 997.126 238.968C990.786 238.054 985.9 235.241 986.239 232.701C986.579 230.144 991.994 228.829 998.353 229.742C1004.71 230.655 1009.58 233.469 1009.24 236.008Z" fill="url(#paint15_radial_70_1402)"/>
<path opacity="0.25" d="M1069.32 178.518C1068.98 181.075 1063.56 182.391 1057.2 181.477C1050.84 180.564 1045.98 177.751 1046.32 175.211C1046.66 172.654 1052.07 171.338 1058.43 172.252C1064.77 173.165 1069.66 175.979 1069.32 178.518Z" fill="url(#paint16_radial_70_1402)"/>
<path opacity="0.25" d="M1119.88 268.16C1118.98 270.553 1113.41 270.48 1107.45 267.995C1101.49 265.511 1097.41 261.565 1098.32 259.172C1099.22 256.779 1104.79 256.852 1110.75 259.336C1116.69 261.821 1120.79 265.767 1119.88 268.16Z" fill="url(#paint17_radial_70_1402)"/>
<path opacity="0.25" d="M1106.64 199.38C1105.6 203.362 1096.71 204.331 1086.79 201.517C1076.86 198.704 1069.66 193.205 1070.69 189.223C1071.73 185.24 1080.62 184.272 1090.54 187.085C1100.47 189.899 1107.67 195.397 1106.64 199.38Z" fill="url(#paint18_radial_70_1402)"/>
<path opacity="0.25" d="M921.038 226.365C921.786 222.303 914.167 217.59 904.022 215.838C893.876 214.086 885.044 215.96 884.296 220.022C883.548 224.085 891.166 228.798 901.312 230.549C911.458 232.301 920.29 230.428 921.038 226.365Z" fill="url(#paint19_radial_70_1402)"/>
<path opacity="0.25" d="M511.819 175.613C512.706 179.212 506.14 184.09 497.178 186.483C488.196 188.894 480.215 187.908 479.328 184.309C478.441 180.71 485.008 175.832 493.97 173.439C502.951 171.028 510.932 172.014 511.819 175.613Z" fill="url(#paint20_radial_70_1402)"/>
<path opacity="0.25" d="M502.575 244.065C503.462 247.664 496.896 252.542 487.933 254.935C478.952 257.346 470.971 256.36 470.084 252.761C469.197 249.162 475.763 244.284 484.726 241.891C493.707 239.48 501.688 240.466 502.575 244.065Z" fill="url(#paint21_radial_70_1402)"/>
<path opacity="0.25" d="M521.027 227.35C521.574 229.597 517.499 232.629 511.895 234.127C506.31 235.625 501.329 235.022 500.782 232.775C500.234 230.528 504.31 227.496 509.914 225.998C515.518 224.5 520.48 225.103 521.027 227.35Z" fill="url(#paint22_radial_70_1402)"/>
<path opacity="0.25" d="M465.894 137.121C466.441 139.368 462.366 142.401 456.762 143.899C451.177 145.397 446.196 144.794 445.649 142.547C445.102 140.3 449.177 137.267 454.781 135.769C460.366 134.271 465.347 134.874 465.894 137.121Z" fill="url(#paint23_radial_70_1402)"/>
<path opacity="0.25" d="M395.138 227.35C395.686 229.597 391.61 232.629 386.006 234.127C380.402 235.625 375.44 235.022 374.893 232.775C374.346 230.528 378.421 227.496 384.025 225.998C389.61 224.5 394.591 225.103 395.138 227.35Z" fill="url(#paint24_radial_70_1402)"/>
<path opacity="0.25" d="M589.612 166.186C591.348 171.978 581.084 180.491 566.688 185.222C552.291 189.954 539.197 189.095 537.461 183.304C535.725 177.513 545.989 169 560.386 164.268C574.782 159.537 587.877 160.395 589.612 166.186Z" fill="url(#paint25_radial_70_1402)"/>
<path opacity="0.25" d="M611.556 143.315C612.104 145.562 608.028 148.594 602.424 150.092C596.839 151.59 591.858 150.987 591.311 148.74C590.764 146.493 594.839 143.461 600.443 141.963C606.047 140.465 611.009 141.068 611.556 143.315Z" fill="url(#paint26_radial_70_1402)"/>
<path opacity="0.25" d="M399.045 154.678C399.592 156.925 395.516 159.957 389.913 161.455C384.328 162.953 379.346 162.351 378.799 160.104C378.252 157.857 382.328 154.824 387.931 153.326C393.516 151.828 398.498 152.431 399.045 154.678Z" fill="url(#paint27_radial_70_1402)"/>
<defs>
<radialGradient id="paint0_radial_70_1402" cx="0" cy="0" r="1" gradientUnits="userSpaceOnUse" gradientTransform="translate(665.524 -4.50461) scale(950.298 1035.1)">
<stop stop-color="#4A289C" stop-opacity="0"/>
<stop offset="0.96" stop-color="#00092B"/>
</radialGradient>
<radialGradient id="paint1_radial_70_1402" cx="0" cy="0" r="1" gradientUnits="userSpaceOnUse" gradientTransform="translate(667.046 34.9028) scale(827.498 901.342)">
<stop stop-color="#4A289C" stop-opacity="0"/>
<stop offset="0.96" stop-color="#00092B"/>
</radialGradient>
<radialGradient id="paint2_radial_70_1402" cx="0" cy="0" r="1" gradientUnits="userSpaceOnUse" gradientTransform="translate(645.934 2.41387) scale(735.721 750.494)">
<stop stop-color="#4A289C"/>
<stop offset="0.96" stop-color="#00092B"/>
</radialGradient>
<radialGradient id="paint3_radial_70_1402" cx="0" cy="0" r="1" gradientUnits="userSpaceOnUse" gradientTransform="translate(712.715 85.5579) rotate(8.82504) scale(412.067 427.884)">
<stop stop-color="#4A289C"/>
<stop offset="0.96" stop-color="#00092B"/>
</radialGradient>
<radialGradient id="paint4_radial_70_1402" cx="0" cy="0" r="1" gradientUnits="userSpaceOnUse" gradientTransform="translate(729.428 205.449) scale(306.503 320.606)">
<stop stop-color="#4A289C"/>
<stop offset="0.96" stop-color="#00092B"/>
</radialGradient>
<radialGradient id="paint5_radial_70_1402" cx="0" cy="0" r="1" gradientUnits="userSpaceOnUse" gradientTransform="translate(833.632 0.0526167) scale(378.648 396.072)">
<stop stop-color="#4A289C"/>
<stop offset="0.96" stop-color="#00092B"/>
</radialGradient>
<radialGradient id="paint6_radial_70_1402" cx="0" cy="0" r="1" gradientUnits="userSpaceOnUse" gradientTransform="translate(833.632 0.0535706) scale(378.648 396.071)">
<stop stop-color="#4A289C"/>
<stop offset="0.96" stop-color="#00092B"/>
</radialGradient>
<radialGradient id="paint7_radial_70_1402" cx="0" cy="0" r="1" gradientUnits="userSpaceOnUse" gradientTransform="translate(833.632 0.0530301) scale(378.648 396.072)">
<stop stop-color="#4A289C"/>
<stop offset="0.96" stop-color="#00092B"/>
</radialGradient>
<radialGradient id="paint8_radial_70_1402" cx="0" cy="0" r="1" gradientUnits="userSpaceOnUse" gradientTransform="translate(833.633 0.0532891) scale(378.648 396.071)">
<stop stop-color="#4A289C"/>
<stop offset="0.96" stop-color="#00092B"/>
</radialGradient>
<radialGradient id="paint9_radial_70_1402" cx="0" cy="0" r="1" gradientUnits="userSpaceOnUse" gradientTransform="translate(833.633 0.0532065) scale(378.648 396.072)">
<stop stop-color="#4A289C"/>
<stop offset="0.96" stop-color="#00092B"/>
</radialGradient>
<radialGradient id="paint10_radial_70_1402" cx="0" cy="0" r="1" gradientUnits="userSpaceOnUse" gradientTransform="translate(833.634 0.0535638) scale(378.649 396.071)">
<stop stop-color="#4A289C"/>
<stop offset="0.96" stop-color="#00092B"/>
</radialGradient>
<radialGradient id="paint11_radial_70_1402" cx="0" cy="0" r="1" gradientUnits="userSpaceOnUse" gradientTransform="translate(334.972 191.635) scale(115.53 120.846)">
<stop stop-color="#4A289C"/>
<stop offset="0.96" stop-color="#00092B"/>
</radialGradient>
<radialGradient id="paint12_radial_70_1402" cx="0" cy="0" r="1" gradientUnits="userSpaceOnUse" gradientTransform="translate(927.385 84.6669) rotate(26.278) scale(116.832 120.629)">
<stop stop-color="#4A289C"/>
<stop offset="0.96" stop-color="#00092B"/>
</radialGradient>
<radialGradient id="paint13_radial_70_1402" cx="0" cy="0" r="1" gradientUnits="userSpaceOnUse" gradientTransform="translate(1292.96 258.58) rotate(50.0516) scale(119.4 118.103)">
<stop stop-color="#4A289C"/>
<stop offset="0.96" stop-color="#00092B"/>
</radialGradient>
<radialGradient id="paint14_radial_70_1402" cx="0" cy="0" r="1" gradientUnits="userSpaceOnUse" gradientTransform="translate(966.678 129.759) rotate(26.278) scale(49.6005 51.2127)">
<stop stop-color="#4A289C"/>
<stop offset="0.96" stop-color="#00092B"/>
</radialGradient>
<radialGradient id="paint15_radial_70_1402" cx="0" cy="0" r="1" gradientUnits="userSpaceOnUse" gradientTransform="translate(1025.59 215.25) rotate(26.278) scale(49.6005 51.2126)">
<stop stop-color="#4A289C"/>
<stop offset="0.96" stop-color="#00092B"/>
</radialGradient>
<radialGradient id="paint16_radial_70_1402" cx="0" cy="0" r="1" gradientUnits="userSpaceOnUse" gradientTransform="translate(1089.98 159.533) rotate(26.278) scale(49.6005 51.2126)">
<stop stop-color="#4A289C"/>
<stop offset="0.96" stop-color="#00092B"/>
</radialGradient>
<radialGradient id="paint17_radial_70_1402" cx="0" cy="0" r="1" gradientUnits="userSpaceOnUse" gradientTransform="translate(1164.9 271.114) rotate(40.4142) scale(50.1019 50.7298)">
<stop stop-color="#4A289C"/>
<stop offset="0.96" stop-color="#00092B"/>
</radialGradient>
<radialGradient id="paint18_radial_70_1402" cx="0" cy="0" r="1" gradientUnits="userSpaceOnUse" gradientTransform="translate(1144.36 174.694) rotate(33.7398) scale(79.9855 81.7864)">
<stop stop-color="#4A289C"/>
<stop offset="0.96" stop-color="#00092B"/>
</radialGradient>
<radialGradient id="paint19_radial_70_1402" cx="0" cy="0" r="1" gradientUnits="userSpaceOnUse" gradientTransform="translate(934.17 190.301) rotate(27.5834) scale(79.5349 81.5343)">
<stop stop-color="#4A289C"/>
<stop offset="0.96" stop-color="#00092B"/>
</radialGradient>
<radialGradient id="paint20_radial_70_1402" cx="0" cy="0" r="1" gradientUnits="userSpaceOnUse" gradientTransform="translate(487.168 138.243) rotate(3.205) scale(70.8914 74.1689)">
<stop stop-color="#4A289C"/>
<stop offset="0.96" stop-color="#00092B"/>
</radialGradient>
<radialGradient id="paint21_radial_70_1402" cx="0" cy="0" r="1" gradientUnits="userSpaceOnUse" gradientTransform="translate(477.375 206.533) rotate(3.205) scale(70.8914 74.1689)">
<stop stop-color="#4A289C"/>
<stop offset="0.96" stop-color="#00092B"/>
</radialGradient>
<radialGradient id="paint22_radial_70_1402" cx="0" cy="0" r="1" gradientUnits="userSpaceOnUse" gradientTransform="translate(503.328 203.669) rotate(3.20501) scale(44.1618 46.2036)">
<stop stop-color="#4A289C"/>
<stop offset="0.96" stop-color="#00092B"/>
</radialGradient>
<radialGradient id="paint23_radial_70_1402" cx="0" cy="0" r="1" gradientUnits="userSpaceOnUse" gradientTransform="translate(449.18 113.664) rotate(3.20501) scale(44.1618 46.2036)">
<stop stop-color="#4A289C"/>
<stop offset="0.96" stop-color="#00092B"/>
</radialGradient>
<radialGradient id="paint24_radial_70_1402" cx="0" cy="0" r="1" gradientUnits="userSpaceOnUse" gradientTransform="translate(377.908 203.687) rotate(3.20501) scale(44.1618 46.2036)">
<stop stop-color="#4A289C"/>
<stop offset="0.96" stop-color="#00092B"/>
</radialGradient>
<radialGradient id="paint25_radial_70_1402" cx="0" cy="0" r="1" gradientUnits="userSpaceOnUse" gradientTransform="translate(550.543 107.791) scale(115.53 120.846)">
<stop stop-color="#4A289C"/>
<stop offset="0.96" stop-color="#00092B"/>
</radialGradient>
<radialGradient id="paint26_radial_70_1402" cx="0" cy="0" r="1" gradientUnits="userSpaceOnUse" gradientTransform="translate(594.233 119.838) rotate(3.205) scale(44.1619 46.2036)">
<stop stop-color="#4A289C"/>
<stop offset="0.96" stop-color="#00092B"/>
</radialGradient>
<radialGradient id="paint27_radial_70_1402" cx="0" cy="0" r="1" gradientUnits="userSpaceOnUse" gradientTransform="translate(382.409 131.181) rotate(3.205) scale(44.1619 46.2036)">
<stop stop-color="#4A289C"/>
<stop offset="0.96" stop-color="#00092B"/>
</radialGradient>
</defs>
</svg>
